<mxfile host="Electron" modified="2024-09-25T15:25:50.729Z" agent="Mozilla/5.0 (X11; Linux x86_64) AppleWebKit/537.36 (KHTML, like Gecko) draw.io/21.6.8 Chrome/114.0.5735.289 Electron/25.5.0 Safari/537.36" etag="MwT8sgCHhdNvbCI75NB-" version="21.6.8" type="device">
  <diagram name="Page-1" id="xJ4cdNUSsaX9OzZSHkuw">
    <mxGraphModel dx="2868" dy="1854" grid="1" gridSize="10" guides="1" tooltips="1" connect="1" arrows="1" fold="1" page="1" pageScale="1" pageWidth="850" pageHeight="1100" math="0" shadow="0">
      <root>
        <mxCell id="0" />
        <mxCell id="1" parent="0" />
        <mxCell id="YgO6uss2dJqLiyYaM4JM-7" style="rounded=0;orthogonalLoop=1;jettySize=auto;html=1;exitX=0.5;exitY=1;exitDx=0;exitDy=0;entryX=0.5;entryY=0;entryDx=0;entryDy=0;" edge="1" parent="1" source="YgO6uss2dJqLiyYaM4JM-2" target="YgO6uss2dJqLiyYaM4JM-6">
          <mxGeometry relative="1" as="geometry" />
        </mxCell>
        <mxCell id="YgO6uss2dJqLiyYaM4JM-14" style="rounded=0;orthogonalLoop=1;jettySize=auto;html=1;exitX=0.5;exitY=1;exitDx=0;exitDy=0;entryX=0.5;entryY=0;entryDx=0;entryDy=0;" edge="1" parent="1" source="YgO6uss2dJqLiyYaM4JM-2" target="YgO6uss2dJqLiyYaM4JM-13">
          <mxGeometry relative="1" as="geometry" />
        </mxCell>
        <mxCell id="YgO6uss2dJqLiyYaM4JM-2" value="&lt;h1&gt;BOT&lt;/h1&gt;" style="rounded=1;whiteSpace=wrap;html=1;" vertex="1" parent="1">
          <mxGeometry x="120" y="415" width="120" height="60" as="geometry" />
        </mxCell>
        <mxCell id="YgO6uss2dJqLiyYaM4JM-28" style="edgeStyle=orthogonalEdgeStyle;rounded=0;orthogonalLoop=1;jettySize=auto;html=1;exitX=0.5;exitY=1;exitDx=0;exitDy=0;entryX=0;entryY=0.5;entryDx=0;entryDy=0;" edge="1" parent="1" source="YgO6uss2dJqLiyYaM4JM-3" target="YgO6uss2dJqLiyYaM4JM-21">
          <mxGeometry relative="1" as="geometry" />
        </mxCell>
        <mxCell id="YgO6uss2dJqLiyYaM4JM-29" style="edgeStyle=orthogonalEdgeStyle;rounded=0;orthogonalLoop=1;jettySize=auto;html=1;exitX=0.5;exitY=1;exitDx=0;exitDy=0;entryX=0;entryY=0.5;entryDx=0;entryDy=0;" edge="1" parent="1" source="YgO6uss2dJqLiyYaM4JM-3" target="YgO6uss2dJqLiyYaM4JM-22">
          <mxGeometry relative="1" as="geometry" />
        </mxCell>
        <mxCell id="YgO6uss2dJqLiyYaM4JM-30" style="edgeStyle=orthogonalEdgeStyle;rounded=0;orthogonalLoop=1;jettySize=auto;html=1;exitX=0.5;exitY=1;exitDx=0;exitDy=0;entryX=1;entryY=0.5;entryDx=0;entryDy=0;" edge="1" parent="1" source="YgO6uss2dJqLiyYaM4JM-3" target="YgO6uss2dJqLiyYaM4JM-25">
          <mxGeometry relative="1" as="geometry" />
        </mxCell>
        <mxCell id="YgO6uss2dJqLiyYaM4JM-31" style="edgeStyle=orthogonalEdgeStyle;rounded=0;orthogonalLoop=1;jettySize=auto;html=1;exitX=0.5;exitY=1;exitDx=0;exitDy=0;entryX=1;entryY=0.5;entryDx=0;entryDy=0;" edge="1" parent="1" source="YgO6uss2dJqLiyYaM4JM-3" target="YgO6uss2dJqLiyYaM4JM-18">
          <mxGeometry relative="1" as="geometry" />
        </mxCell>
        <mxCell id="YgO6uss2dJqLiyYaM4JM-48" style="edgeStyle=orthogonalEdgeStyle;rounded=0;orthogonalLoop=1;jettySize=auto;html=1;exitX=0.5;exitY=1;exitDx=0;exitDy=0;entryX=0;entryY=0.25;entryDx=0;entryDy=0;" edge="1" parent="1" source="YgO6uss2dJqLiyYaM4JM-3" target="YgO6uss2dJqLiyYaM4JM-47">
          <mxGeometry relative="1" as="geometry" />
        </mxCell>
        <mxCell id="YgO6uss2dJqLiyYaM4JM-3" value="&lt;h1&gt;OPERATOR&lt;/h1&gt;" style="rounded=1;whiteSpace=wrap;html=1;" vertex="1" parent="1">
          <mxGeometry x="570" y="425" width="190" height="60" as="geometry" />
        </mxCell>
        <mxCell id="YgO6uss2dJqLiyYaM4JM-46" style="edgeStyle=orthogonalEdgeStyle;rounded=0;orthogonalLoop=1;jettySize=auto;html=1;exitX=0.5;exitY=1;exitDx=0;exitDy=0;entryX=0.5;entryY=0;entryDx=0;entryDy=0;" edge="1" parent="1" source="YgO6uss2dJqLiyYaM4JM-4" target="YgO6uss2dJqLiyYaM4JM-45">
          <mxGeometry relative="1" as="geometry" />
        </mxCell>
        <mxCell id="YgO6uss2dJqLiyYaM4JM-50" style="edgeStyle=orthogonalEdgeStyle;rounded=0;orthogonalLoop=1;jettySize=auto;html=1;exitX=0.5;exitY=1;exitDx=0;exitDy=0;entryX=0.5;entryY=0;entryDx=0;entryDy=0;" edge="1" parent="1" source="YgO6uss2dJqLiyYaM4JM-4" target="YgO6uss2dJqLiyYaM4JM-49">
          <mxGeometry relative="1" as="geometry" />
        </mxCell>
        <mxCell id="YgO6uss2dJqLiyYaM4JM-4" value="&lt;h1&gt;CHANEL&lt;/h1&gt;" style="rounded=1;whiteSpace=wrap;html=1;" vertex="1" parent="1">
          <mxGeometry x="1020" y="425" width="190" height="60" as="geometry" />
        </mxCell>
        <mxCell id="YgO6uss2dJqLiyYaM4JM-24" style="rounded=0;orthogonalLoop=1;jettySize=auto;html=1;exitX=0.5;exitY=1;exitDx=0;exitDy=0;entryX=0.5;entryY=0;entryDx=0;entryDy=0;" edge="1" parent="1" source="YgO6uss2dJqLiyYaM4JM-6" target="YgO6uss2dJqLiyYaM4JM-10">
          <mxGeometry relative="1" as="geometry" />
        </mxCell>
        <mxCell id="YgO6uss2dJqLiyYaM4JM-6" value="&lt;h3&gt;GREET / RULES&lt;/h3&gt;&lt;h5&gt;Greets clients as they arrive and gives them the rules&lt;/h5&gt;" style="rounded=0;whiteSpace=wrap;html=1;" vertex="1" parent="1">
          <mxGeometry x="190" y="525" width="150" height="80" as="geometry" />
        </mxCell>
        <mxCell id="YgO6uss2dJqLiyYaM4JM-44" style="edgeStyle=orthogonalEdgeStyle;rounded=0;orthogonalLoop=1;jettySize=auto;html=1;exitX=0.5;exitY=1;exitDx=0;exitDy=0;entryX=0.5;entryY=0;entryDx=0;entryDy=0;" edge="1" parent="1" source="YgO6uss2dJqLiyYaM4JM-9" target="YgO6uss2dJqLiyYaM4JM-43">
          <mxGeometry relative="1" as="geometry" />
        </mxCell>
        <mxCell id="YgO6uss2dJqLiyYaM4JM-9" value="&lt;h1&gt;CLIENT&lt;/h1&gt;" style="rounded=1;whiteSpace=wrap;html=1;" vertex="1" parent="1">
          <mxGeometry x="1480" y="425" width="190" height="60" as="geometry" />
        </mxCell>
        <mxCell id="YgO6uss2dJqLiyYaM4JM-10" value="&lt;h3&gt;RULES&lt;/h3&gt;&lt;h5&gt;Clients should accept the rules to get access to channel&lt;/h5&gt;" style="rounded=0;whiteSpace=wrap;html=1;" vertex="1" parent="1">
          <mxGeometry x="210" y="635" width="170" height="80" as="geometry" />
        </mxCell>
        <mxCell id="YgO6uss2dJqLiyYaM4JM-13" value="&lt;h2&gt;Censoreship&lt;/h2&gt;&lt;h5&gt;Checks through channel messages, and reports users to operators if they use banned words&lt;/h5&gt;" style="rounded=0;whiteSpace=wrap;html=1;" vertex="1" parent="1">
          <mxGeometry x="30" y="525" width="150" height="110" as="geometry" />
        </mxCell>
        <mxCell id="YgO6uss2dJqLiyYaM4JM-18" value="&lt;h2&gt;KICK&lt;/h2&gt;&lt;h4&gt;eject client from channel&lt;/h4&gt;" style="rounded=0;whiteSpace=wrap;html=1;" vertex="1" parent="1">
          <mxGeometry x="470" y="515" width="170" height="80" as="geometry" />
        </mxCell>
        <mxCell id="YgO6uss2dJqLiyYaM4JM-21" value="&lt;h2&gt;INVITE&lt;/h2&gt;&lt;h4&gt;invite client to channel&lt;/h4&gt;" style="rounded=0;whiteSpace=wrap;html=1;" vertex="1" parent="1">
          <mxGeometry x="690" y="515" width="140" height="80" as="geometry" />
        </mxCell>
        <mxCell id="YgO6uss2dJqLiyYaM4JM-22" value="&lt;h2&gt;&lt;span style=&quot;background-color: initial;&quot;&gt;TOPIC&lt;/span&gt;&lt;/h2&gt;&lt;h2&gt;&lt;span style=&quot;background-color: initial; font-size: 12px; font-weight: normal;&quot;&gt;show / edit channel topic&lt;/span&gt;&lt;br&gt;&lt;/h2&gt;" style="rounded=0;whiteSpace=wrap;html=1;" vertex="1" parent="1">
          <mxGeometry x="690" y="615" width="140" height="80" as="geometry" />
        </mxCell>
        <mxCell id="YgO6uss2dJqLiyYaM4JM-37" style="edgeStyle=orthogonalEdgeStyle;rounded=0;orthogonalLoop=1;jettySize=auto;html=1;exitX=0.5;exitY=1;exitDx=0;exitDy=0;entryX=1;entryY=0.5;entryDx=0;entryDy=0;" edge="1" parent="1" source="YgO6uss2dJqLiyYaM4JM-25" target="YgO6uss2dJqLiyYaM4JM-32">
          <mxGeometry relative="1" as="geometry" />
        </mxCell>
        <mxCell id="YgO6uss2dJqLiyYaM4JM-38" style="edgeStyle=orthogonalEdgeStyle;rounded=0;orthogonalLoop=1;jettySize=auto;html=1;exitX=0.5;exitY=1;exitDx=0;exitDy=0;entryX=0;entryY=0.5;entryDx=0;entryDy=0;" edge="1" parent="1" source="YgO6uss2dJqLiyYaM4JM-25" target="YgO6uss2dJqLiyYaM4JM-33">
          <mxGeometry relative="1" as="geometry" />
        </mxCell>
        <mxCell id="YgO6uss2dJqLiyYaM4JM-39" style="edgeStyle=orthogonalEdgeStyle;rounded=0;orthogonalLoop=1;jettySize=auto;html=1;exitX=0.5;exitY=1;exitDx=0;exitDy=0;entryX=1;entryY=0.5;entryDx=0;entryDy=0;" edge="1" parent="1" source="YgO6uss2dJqLiyYaM4JM-25" target="YgO6uss2dJqLiyYaM4JM-34">
          <mxGeometry relative="1" as="geometry" />
        </mxCell>
        <mxCell id="YgO6uss2dJqLiyYaM4JM-40" style="edgeStyle=orthogonalEdgeStyle;rounded=0;orthogonalLoop=1;jettySize=auto;html=1;exitX=0.5;exitY=1;exitDx=0;exitDy=0;entryX=0;entryY=0.5;entryDx=0;entryDy=0;" edge="1" parent="1" source="YgO6uss2dJqLiyYaM4JM-25" target="YgO6uss2dJqLiyYaM4JM-35">
          <mxGeometry relative="1" as="geometry" />
        </mxCell>
        <mxCell id="YgO6uss2dJqLiyYaM4JM-41" style="edgeStyle=orthogonalEdgeStyle;rounded=0;orthogonalLoop=1;jettySize=auto;html=1;exitX=0.5;exitY=1;exitDx=0;exitDy=0;entryX=0.5;entryY=0;entryDx=0;entryDy=0;" edge="1" parent="1" source="YgO6uss2dJqLiyYaM4JM-25" target="YgO6uss2dJqLiyYaM4JM-36">
          <mxGeometry relative="1" as="geometry" />
        </mxCell>
        <mxCell id="YgO6uss2dJqLiyYaM4JM-25" value="&lt;h2&gt;MODE&lt;/h2&gt;" style="rounded=0;whiteSpace=wrap;html=1;" vertex="1" parent="1">
          <mxGeometry x="520" y="685" width="110" height="50" as="geometry" />
        </mxCell>
        <mxCell id="YgO6uss2dJqLiyYaM4JM-32" value="&lt;h3&gt;-i&lt;/h3&gt;&lt;h5&gt;set or remove invite only channel&lt;/h5&gt;" style="rounded=0;whiteSpace=wrap;html=1;" vertex="1" parent="1">
          <mxGeometry x="420" y="765" width="130" height="70" as="geometry" />
        </mxCell>
        <mxCell id="YgO6uss2dJqLiyYaM4JM-33" value="&lt;h3&gt;-t&lt;/h3&gt;&lt;h5&gt;toggles operator only topic change&lt;/h5&gt;" style="rounded=0;whiteSpace=wrap;html=1;" vertex="1" parent="1">
          <mxGeometry x="600" y="765" width="130" height="70" as="geometry" />
        </mxCell>
        <mxCell id="YgO6uss2dJqLiyYaM4JM-34" value="&lt;h3&gt;-k&lt;/h3&gt;&lt;h5&gt;set / remove channel password&lt;/h5&gt;" style="rounded=0;whiteSpace=wrap;html=1;" vertex="1" parent="1">
          <mxGeometry x="420" y="845" width="130" height="70" as="geometry" />
        </mxCell>
        <mxCell id="YgO6uss2dJqLiyYaM4JM-35" value="&lt;h3&gt;-o&lt;/h3&gt;&lt;h5&gt;give or take oparator priviliges&lt;/h5&gt;" style="rounded=0;whiteSpace=wrap;html=1;" vertex="1" parent="1">
          <mxGeometry x="600" y="845" width="130" height="70" as="geometry" />
        </mxCell>
        <mxCell id="YgO6uss2dJqLiyYaM4JM-36" value="&lt;h3&gt;-l&lt;/h3&gt;&lt;h5&gt;set / remove user limit to channel&lt;/h5&gt;" style="rounded=0;whiteSpace=wrap;html=1;" vertex="1" parent="1">
          <mxGeometry x="510" y="925" width="130" height="70" as="geometry" />
        </mxCell>
        <mxCell id="YgO6uss2dJqLiyYaM4JM-43" value="&lt;h2&gt;Authenticate&lt;/h2&gt;&lt;h4&gt;login to server&lt;/h4&gt;" style="rounded=0;whiteSpace=wrap;html=1;" vertex="1" parent="1">
          <mxGeometry x="1505" y="525" width="140" height="80" as="geometry" />
        </mxCell>
        <mxCell id="YgO6uss2dJqLiyYaM4JM-45" value="&lt;h2&gt;Authenticate&lt;/h2&gt;&lt;h4&gt;&lt;span style=&quot;font-weight: normal;&quot;&gt;client might enter password to enter&lt;/span&gt;&lt;/h4&gt;" style="rounded=0;whiteSpace=wrap;html=1;" vertex="1" parent="1">
          <mxGeometry x="960" y="525" width="140" height="80" as="geometry" />
        </mxCell>
        <mxCell id="YgO6uss2dJqLiyYaM4JM-47" value="&lt;h2&gt;&lt;span style=&quot;background-color: initial;&quot;&gt;BAN&lt;/span&gt;&lt;/h2&gt;&lt;h2&gt;&lt;span style=&quot;background-color: initial; font-size: 12px; font-weight: normal;&quot;&gt;add / remove word from list of banned worrds (channel specific)&lt;/span&gt;&lt;br&gt;&lt;/h2&gt;" style="rounded=0;whiteSpace=wrap;html=1;spacing=2;" vertex="1" parent="1">
          <mxGeometry x="760" y="715" width="160" height="110" as="geometry" />
        </mxCell>
        <mxCell id="YgO6uss2dJqLiyYaM4JM-49" value="&lt;p style=&quot;line-height: 100%;&quot;&gt;&lt;/p&gt;&lt;h2&gt;Censorship dictionnary&lt;/h2&gt;&lt;div&gt;Each channel has a dictionary of ban words&lt;/div&gt;&lt;p&gt;&lt;/p&gt;" style="rounded=0;whiteSpace=wrap;html=1;align=center;labelPosition=center;verticalLabelPosition=middle;verticalAlign=middle;spacingTop=-4;" vertex="1" parent="1">
          <mxGeometry x="1130" y="525" width="160" height="90" as="geometry" />
        </mxCell>
        <mxCell id="YgO6uss2dJqLiyYaM4JM-56" style="edgeStyle=orthogonalEdgeStyle;rounded=0;orthogonalLoop=1;jettySize=auto;html=1;exitX=0.5;exitY=1;exitDx=0;exitDy=0;entryX=0.5;entryY=0;entryDx=0;entryDy=0;" edge="1" parent="1" source="YgO6uss2dJqLiyYaM4JM-53" target="YgO6uss2dJqLiyYaM4JM-52">
          <mxGeometry relative="1" as="geometry" />
        </mxCell>
        <mxCell id="YgO6uss2dJqLiyYaM4JM-53" value="POV : us doing IRC server" style="rounded=1;whiteSpace=wrap;html=1;" vertex="1" parent="1">
          <mxGeometry x="755" y="105" width="210" height="45" as="geometry" />
        </mxCell>
        <mxCell id="YgO6uss2dJqLiyYaM4JM-57" value="" style="group" vertex="1" connectable="0" parent="1">
          <mxGeometry x="700" y="185" width="320" height="203.93000000000006" as="geometry" />
        </mxCell>
        <mxCell id="YgO6uss2dJqLiyYaM4JM-52" value="" style="shape=image;verticalLabelPosition=bottom;labelBackgroundColor=default;verticalAlign=top;aspect=fixed;imageAspect=0;image=https://i.pinimg.com/originals/28/dc/e3/28dce32572185a7c3f950bcf637c88fc.png;" vertex="1" parent="YgO6uss2dJqLiyYaM4JM-57">
          <mxGeometry width="320" height="203.93" as="geometry" />
        </mxCell>
        <mxCell id="YgO6uss2dJqLiyYaM4JM-55" value="" style="rounded=0;whiteSpace=wrap;html=1;strokeColor=none;" vertex="1" parent="YgO6uss2dJqLiyYaM4JM-57">
          <mxGeometry x="160" y="100" width="160" height="103.93" as="geometry" />
        </mxCell>
        <mxCell id="YgO6uss2dJqLiyYaM4JM-58" style="rounded=0;orthogonalLoop=1;jettySize=auto;html=1;exitX=0;exitY=0.25;exitDx=0;exitDy=0;entryX=0.5;entryY=0;entryDx=0;entryDy=0;strokeWidth=4;strokeColor=#FF3333;" edge="1" parent="1" source="YgO6uss2dJqLiyYaM4JM-52" target="YgO6uss2dJqLiyYaM4JM-2">
          <mxGeometry relative="1" as="geometry" />
        </mxCell>
        <mxCell id="YgO6uss2dJqLiyYaM4JM-59" style="rounded=0;orthogonalLoop=1;jettySize=auto;html=1;exitX=0.25;exitY=1;exitDx=0;exitDy=0;strokeWidth=4;strokeColor=#FF3333;" edge="1" parent="1" source="YgO6uss2dJqLiyYaM4JM-52" target="YgO6uss2dJqLiyYaM4JM-3">
          <mxGeometry relative="1" as="geometry" />
        </mxCell>
        <mxCell id="YgO6uss2dJqLiyYaM4JM-60" style="rounded=0;orthogonalLoop=1;jettySize=auto;html=1;exitX=1;exitY=0.25;exitDx=0;exitDy=0;entryX=0.5;entryY=0;entryDx=0;entryDy=0;strokeWidth=4;strokeColor=#FF3333;" edge="1" parent="1" source="YgO6uss2dJqLiyYaM4JM-52" target="YgO6uss2dJqLiyYaM4JM-4">
          <mxGeometry relative="1" as="geometry" />
        </mxCell>
        <mxCell id="YgO6uss2dJqLiyYaM4JM-61" style="rounded=0;orthogonalLoop=1;jettySize=auto;html=1;exitX=1;exitY=0.25;exitDx=0;exitDy=0;strokeWidth=4;strokeColor=#FF3333;" edge="1" parent="1" source="YgO6uss2dJqLiyYaM4JM-52" target="YgO6uss2dJqLiyYaM4JM-9">
          <mxGeometry relative="1" as="geometry" />
        </mxCell>
      </root>
    </mxGraphModel>
  </diagram>
</mxfile>
